<?xml version="1.0" standalone="no"?>
<!DOCTYPE svg PUBLIC "-//W3C//DTD SVG 20010904//EN"
 "http://www.w3.org/TR/2001/REC-SVG-20010904/DTD/svg10.dtd">
<svg version="1.0" xmlns="http://www.w3.org/2000/svg"
 width="500.000000pt" height="500.000000pt" viewBox="0 0 500.000000 500.000000"
 preserveAspectRatio="xMidYMid meet">

<g transform="translate(0.000000,500.000000) scale(0.100000,-0.100000)"
fill="#000000" stroke="none">
<path d="M2795 4510 c0 -43 3 -76 6 -74 3 2 11 -8 17 -21 7 -14 8 -25 3 -25
-5 0 -11 7 -15 15 -3 8 -11 15 -18 15 -10 0 -10 -2 1 -9 10 -7 11 -15 3 -37
-6 -16 -11 -23 -11 -16 -1 6 -5 12 -11 12 -12 0 -1 -30 18 -49 7 -8 11 -22 9
-32 -7 -26 9 -35 86 -53 37 -9 83 -23 103 -31 54 -23 57 -21 51 34 -5 46 -4
48 15 43 18 -4 20 -2 13 29 -9 43 -76 162 -121 213 -19 22 -34 37 -34 35 0 -2
7 -26 15 -53 18 -58 13 -67 -18 -38 -13 12 -30 22 -38 22 -24 1 -46 24 -53 58
-13 57 -22 42 -21 -38z m41 -77 c-10 -10 -19 5 -10 18 6 11 8 11 12 0 2 -7 1
-15 -2 -18z m29 7 c3 -5 1 -10 -4 -10 -6 0 -11 5 -11 10 0 6 2 10 4 10 3 0 8
-4 11 -10z m105 -15 c0 -8 4 -15 9 -15 12 0 34 -64 29 -86 -2 -12 -9 -8 -26
16 -26 35 -41 100 -23 100 6 0 11 -7 11 -15z"/>
<path d="M2194 4405 c3 -9 0 -18 -8 -21 -7 -3 -13 -11 -13 -19 0 -10 5 -11 19
-4 18 10 22 59 5 59 -5 0 -6 -7 -3 -15z"/>
<path d="M2770 4390 c0 -5 5 -10 11 -10 5 0 7 5 4 10 -3 6 -8 10 -11 10 -2 0
-4 -4 -4 -10z"/>
<path d="M2471 4315 c1 -11 5 -31 9 -45 8 -24 8 -24 9 5 0 17 -4 37 -9 45 -8
12 -10 11 -9 -5z"/>
<path d="M2006 4276 c-4 -21 -5 -40 -2 -43 7 -8 18 42 14 64 -3 11 -7 3 -12
-21z"/>
<path d="M3080 4238 c0 -7 -3 -29 -6 -48 -5 -31 -2 -37 25 -53 l31 -18 0 38
c0 42 -18 84 -37 91 -7 2 -13 -2 -13 -10z"/>
<path d="M2186 4154 c-214 -46 -352 -153 -332 -258 8 -40 61 -92 124 -120 23
-10 42 -25 42 -31 0 -7 9 -43 21 -80 16 -52 31 -77 65 -110 38 -37 46 -53 60
-117 9 -40 20 -82 25 -93 l9 -20 -4 20 c-13 58 -17 165 -7 165 6 0 11 -12 11
-27 1 -69 14 -182 26 -221 11 -37 10 -41 -2 -31 -11 9 -14 9 -14 -1 0 -9 -14
-11 -54 -7 -39 4 -58 2 -66 -8 -9 -11 -7 -12 12 -8 23 5 23 5 -2 -16 -14 -11
-27 -21 -30 -21 -3 0 -11 -10 -19 -22 -10 -18 -11 -20 0 -10 7 6 20 12 28 12
11 -1 8 -7 -11 -24 l-26 -24 41 -10 42 -10 -45 -1 c-46 -2 -97 -31 -85 -50 9
-16 34 -1 28 16 -9 23 17 12 34 -14 10 -15 11 -23 3 -28 -6 -3 -9 -1 -8 6 4
15 -13 21 -31 10 -11 -7 -12 -13 -4 -23 11 -13 13 -18 13 -39 0 -5 5 -7 12 -3
6 4 8 3 5 -3 -4 -5 16 -73 42 -149 70 -199 73 -205 78 -201 2 3 -3 21 -11 41
-8 20 -13 36 -11 36 2 0 20 -23 41 -52 48 -64 55 -48 15 34 -17 35 -23 52 -14
38 10 -13 31 -40 47 -58 28 -32 30 -33 38 -13 4 12 12 21 18 21 31 0 164 -298
210 -472 40 -149 70 -336 77 -478 3 -63 6 -132 7 -153 1 -20 -2 -37 -6 -37 -4
0 -8 -7 -8 -15 0 -9 -6 -18 -14 -21 -8 -3 -12 -12 -10 -19 6 -15 -27 -37 -48
-33 -7 2 -14 -7 -16 -19 -2 -13 2 -23 8 -23 6 0 8 -4 5 -10 -3 -5 -1 -10 5
-10 6 0 8 -5 4 -12 -5 -7 -11 -5 -21 7 -21 30 -15 133 8 119 5 -3 6 2 3 10 -4
11 0 16 15 16 12 0 21 -4 21 -8 0 -5 7 -9 15 -9 12 0 15 10 14 41 -1 23 1 49
5 58 6 13 3 17 -13 15 -12 -1 -21 -5 -21 -9 0 -4 -7 -5 -16 -1 -19 7 -45 -22
-38 -42 3 -7 1 -16 -5 -20 -8 -4 -11 29 -9 110 1 73 5 110 10 100 5 -9 14 -12
21 -8 7 4 4 -5 -6 -20 -10 -15 -15 -32 -11 -38 4 -8 9 -7 15 2 7 12 9 11 10
-1 0 -10 3 -9 8 4 8 22 -5 136 -18 149 -5 5 -11 1 -15 -8 -3 -9 -2 -13 4 -10
14 9 12 -19 -2 -33 -19 -19 -28 -14 -28 12 0 14 -7 32 -16 40 -8 9 -12 20 -9
26 3 6 3 20 0 31 -7 20 -8 20 -26 -7 -16 -25 -19 -26 -20 -9 -1 16 -2 15 -8
-5 -4 -14 -5 -27 -2 -30 3 -3 7 -16 9 -30 2 -14 8 -40 14 -58 5 -18 8 -35 6
-37 -8 -9 -27 12 -31 35 -3 14 -8 36 -11 50 -3 14 -8 47 -11 75 -3 27 -10 52
-14 55 -15 10 -21 40 -8 40 7 0 20 9 29 19 14 17 14 20 2 25 -9 3 -12 1 -9 -4
3 -6 2 -10 -4 -10 -5 0 -20 21 -33 47 -14 29 -24 40 -26 30 -2 -10 -7 -17 -12
-17 -10 0 -8 19 3 38 5 7 3 12 -4 12 -9 0 -10 3 -2 11 12 12 7 73 -12 144 -44
161 -127 396 -158 445 -17 28 -30 25 -16 -2 12 -22 11 -22 -6 -8 -17 14 -17
14 -7 -7 23 -42 12 -46 -19 -7 -17 22 -40 44 -52 51 -26 15 -61 17 -52 4 3 -6
-11 -8 -35 -5 -22 3 -40 3 -40 1 0 -2 27 -23 59 -46 33 -23 80 -65 104 -94 66
-77 133 -219 78 -164 -10 10 -11 8 -5 -7 5 -13 4 -17 -4 -12 -7 4 -12 14 -12
22 0 53 -228 315 -249 287 -8 -10 -42 -13 -36 -3 3 4 -4 10 -14 13 -17 4 -18
2 -10 -20 13 -36 12 -36 -28 5 -21 21 -30 28 -20 17 10 -13 15 -29 11 -38 -3
-10 -1 -17 5 -17 6 0 11 -15 11 -33 0 -18 4 -37 9 -42 5 -6 12 -21 15 -35 7
-24 6 -24 -9 3 -15 26 -17 26 -43 13 -28 -14 -72 -67 -72 -85 0 -6 -11 -18
-25 -27 -24 -16 -55 -66 -55 -90 0 -7 -6 -19 -13 -26 -18 -18 -47 -78 -38 -78
11 0 51 39 51 50 0 6 7 10 16 10 11 0 14 -5 10 -16 -3 -9 -6 -18 -6 -20 0 -2
-7 -4 -16 -4 -10 0 -14 -6 -11 -14 3 -8 -1 -17 -9 -20 -8 -3 -14 -17 -14 -30
0 -29 -19 -76 -32 -76 -4 0 -8 -6 -8 -14 0 -8 -8 -21 -19 -28 -10 -7 -19 -17
-21 -23 -1 -5 -7 -8 -14 -6 -6 3 -38 5 -72 6 -69 2 -86 9 -77 30 3 10 -1 15
-16 15 -12 0 -18 -5 -15 -13 2 -7 -4 -13 -16 -14 -14 -1 -20 4 -20 18 0 10 5
19 12 19 6 0 8 3 5 7 -4 3 -18 -4 -31 -16 -14 -13 -29 -20 -34 -17 -6 3 -21
-7 -34 -23 -24 -30 -98 -62 -133 -58 -29 3 -36 19 -17 34 14 11 13 12 -10 2
-15 -7 -25 -16 -22 -21 5 -8 -32 -50 -49 -55 -30 -10 -98 -125 -83 -141 2 -2
19 4 38 14 64 34 78 25 26 -18 -40 -32 -33 -44 15 -24 29 12 35 12 31 1 -6
-16 -81 -48 -94 -40 -4 3 -10 -1 -13 -9 -4 -9 -14 -12 -26 -9 -15 4 -21 1 -21
-10 0 -9 5 -19 10 -22 6 -4 7 -11 4 -17 -4 -6 -10 -5 -15 3 -7 11 -9 9 -9 -7
0 -11 -10 -30 -21 -43 -16 -17 -18 -26 -10 -34 8 -8 15 -5 27 12 9 12 28 27
43 33 24 9 25 11 6 18 -19 7 -19 7 2 18 12 7 35 12 52 12 16 0 32 6 34 13 4 9
6 9 6 0 2 -24 22 -13 33 17 6 19 19 32 34 36 17 4 24 13 24 29 0 13 12 36 28
52 47 50 159 133 179 133 11 0 25 11 33 24 7 13 22 27 34 30 35 9 116 7 116
-4 0 -5 -9 -10 -19 -10 -12 0 -23 -11 -30 -31 -9 -26 -8 -30 4 -25 8 3 22 9
30 12 8 3 15 1 15 -5 0 -6 -7 -11 -15 -11 -8 0 -12 -6 -9 -14 4 -11 0 -13 -15
-9 -14 3 -23 0 -27 -11 -3 -9 -15 -16 -25 -16 -11 0 -16 -5 -13 -14 3 -7 -2
-16 -10 -19 -9 -4 -16 -2 -16 3 0 6 -7 10 -17 10 -14 0 -14 -2 -1 -17 8 -10
13 -24 12 -30 -1 -7 -2 -17 -3 -23 0 -5 -20 -15 -42 -22 -23 -6 -37 -14 -30
-16 6 -2 11 -10 11 -17 0 -8 7 -11 20 -8 11 3 20 9 20 14 0 5 6 9 14 9 8 0 16
4 18 10 2 5 9 6 17 1 12 -8 12 -12 -2 -26 -19 -18 -23 -30 -7 -20 6 3 10 -1
10 -9 0 -9 -7 -16 -15 -16 -7 0 -18 -6 -22 -14 -4 -7 -24 -16 -43 -19 -19 -2
-46 -8 -60 -11 -14 -4 -48 -11 -76 -15 -56 -8 -125 -40 -132 -61 -3 -7 0 -10
7 -6 13 9 5 -17 -21 -59 -17 -29 -18 -29 -18 -6 l0 25 -29 -28 c-23 -22 -36
-27 -55 -22 -14 3 -26 12 -26 19 0 8 -4 7 -10 -3 -6 -9 -5 -17 1 -21 6 -3 -9
-15 -33 -27 -34 -16 -39 -22 -25 -27 9 -4 17 -14 17 -22 0 -8 5 -11 12 -7 10
5 10 4 0 -7 -6 -7 -32 -13 -56 -14 -24 0 -42 -3 -39 -7 2 -5 -3 -8 -12 -8 -8
0 -18 7 -21 15 -4 8 -13 15 -21 15 -10 0 -12 6 -8 20 7 22 -5 26 -23 8 -7 -7
-12 -8 -12 -2 0 25 -50 -102 -64 -165 l-16 -71 46 -92 c44 -89 56 -103 263
-309 235 -234 370 -356 440 -397 50 -29 118 -34 241 -18 55 8 63 7 54 -5 -16
-19 -45 -119 -38 -130 3 -5 -1 -6 -9 -3 -10 4 -30 -18 -63 -66 -26 -39 -51
-73 -56 -76 -5 -3 -20 1 -33 10 -13 9 -41 16 -61 16 -30 0 -44 -7 -73 -39 -20
-21 -46 -57 -59 -80 l-23 -41 1131 0 c621 0 1130 2 1130 4 0 2 -13 32 -29 66
-16 34 -27 69 -24 77 11 28 38 8 55 -42 13 -37 17 -44 18 -25 1 14 4 20 6 14
3 -6 1 -30 -5 -53 l-9 -41 32 0 31 0 0 92 c0 91 1 93 23 91 12 -2 39 6 60 17
20 11 42 20 48 20 21 0 64 42 87 83 17 34 22 61 24 142 1 55 2 109 3 120 0 15
2 17 9 7 14 -23 21 12 10 50 -12 46 -55 84 -109 99 -81 21 -149 7 -136 -28 3
-8 -2 -13 -12 -13 -9 0 -28 -3 -42 -7 -21 -6 -23 -4 -13 9 7 8 10 18 6 21 -3
4 8 13 26 20 36 15 31 27 -12 27 -25 0 -28 2 -17 15 10 12 9 15 -6 16 -27 1
33 28 66 29 44 2 -8 18 -65 20 -38 2 -44 4 -25 9 25 7 25 7 -9 19 -19 7 -42
12 -51 12 -10 0 -34 11 -54 25 -39 27 -63 35 -30 10 17 -13 15 -14 -27 -12
-33 1 -45 6 -42 15 9 23 54 25 107 4 123 -49 153 -52 200 -23 l31 20 62 -30
c74 -35 116 -81 154 -167 23 -49 29 -79 29 -130 0 -75 9 -74 40 4 11 27 19 40
20 29 0 -17 2 -18 10 -4 18 31 31 112 20 123 -5 5 -10 18 -10 27 0 22 -54 127
-104 201 -20 30 -36 61 -36 69 0 7 24 -21 52 -64 55 -80 67 -83 69 -16 5 120
-30 176 -103 166 -21 -3 -38 -1 -38 4 0 5 15 9 34 9 19 0 37 3 39 8 3 4 -4 31
-16 59 -19 51 -21 53 -61 55 l-41 1 38 4 c43 5 47 20 14 51 -30 29 -33 28 -41
-10 -5 -25 -9 -29 -16 -19 -14 23 11 58 60 84 36 19 47 31 54 61 9 32 5 46
-29 116 -21 43 -49 91 -62 106 -13 15 -28 45 -34 67 -9 33 -90 171 -110 187
-4 3 -18 28 -33 55 l-26 50 5 -60 c4 -59 4 -59 -6 -15 -5 25 -8 55 -6 67 2 12
0 21 -5 20 -5 -1 -11 16 -13 38 -12 127 -18 165 -26 165 -15 0 -10 47 7 61 14
12 14 14 -2 26 -10 7 -14 13 -10 13 8 0 -28 53 -57 85 -10 11 -25 31 -32 45
-14 27 -68 81 -65 65 5 -25 -2 -26 -21 -1 -12 15 -27 25 -35 22 -8 -3 -11 2
-9 14 2 11 -1 23 -7 26 -7 4 -8 2 -4 -4 16 -27 -21 -9 -45 21 -41 52 -44 65
-4 22 20 -22 33 -33 28 -24 -12 25 -92 109 -103 109 -6 0 -10 10 -10 23 0 23
-68 113 -78 103 -2 -3 1 -13 9 -22 13 -16 12 -16 -7 -6 -14 7 -24 26 -29 49
-4 21 -10 40 -14 43 -4 3 -29 33 -55 67 -27 35 -52 61 -56 58 -4 -3 -10 -31
-14 -62 -7 -66 -18 -87 -37 -81 -8 3 -20 -1 -27 -9 -17 -17 -32 -17 -32 1 0 8
11 57 25 110 14 53 25 107 25 121 0 18 14 34 59 65 72 48 77 55 60 87 -10 18
-10 26 -1 32 15 9 50 122 57 185 3 26 21 78 40 114 41 83 51 129 35 178 -14
41 -18 124 -7 141 4 7 15 9 23 6 13 -5 15 -16 10 -65 -4 -32 -3 -58 1 -58 4 0
32 17 62 38 60 42 84 72 64 79 -7 3 -13 9 -13 15 0 6 8 4 18 -5 17 -16 20 -15
43 11 33 35 59 78 59 95 0 25 -37 48 -115 73 -200 63 -370 84 -674 83 -141 0
-228 -5 -275 -15z m854 -151 c0 -6 3 -20 6 -30 4 -10 -5 -1 -20 20 -31 45 -32
51 -6 35 11 -7 20 -18 20 -25z m-380 7 c7 -10 10 -11 10 -2 0 19 28 14 40 -7
5 -11 7 -22 3 -24 -18 -10 -94 -6 -130 6 -40 14 -77 12 -68 -4 7 -10 6 -11
-52 -14 -36 -3 -43 0 -43 15 0 10 5 22 12 26 43 27 212 30 228 4z m118 -32
c-5 -32 -28 -35 -28 -4 0 17 5 26 16 26 10 0 14 -7 12 -22z m-368 2 c0 -5 -14
-24 -30 -42 -30 -32 -30 -32 -19 -5 7 15 16 27 21 27 4 0 8 7 8 15 0 8 5 15
10 15 6 0 10 -4 10 -10z m415 -9 c3 -5 1 -12 -4 -15 -5 -3 -11 1 -15 9 -6 16
9 21 19 6z m-425 -56 c-7 -9 -15 -13 -17 -11 -7 7 7 26 19 26 6 0 6 -6 -2 -15z
m150 7 c0 -5 -24 -13 -54 -18 -42 -8 -53 -8 -49 2 3 7 26 15 51 17 26 2 48 4
50 5 1 1 2 -2 2 -6z m199 -64 c-1 -73 1 -87 18 -139 20 -57 12 -84 -20 -74
-12 4 -38 7 -57 7 -80 -2 -81 -3 -53 -34 20 -22 30 -23 49 -3 18 17 24 18 44
5 13 -8 12 -11 -5 -24 -11 -9 -25 -14 -31 -11 -7 2 -21 -5 -32 -15 -11 -11
-31 -21 -44 -24 -60 -11 -77 -25 -95 -77 -10 -28 -28 -58 -41 -67 -26 -17 -38
-11 -27 15 16 36 15 53 0 47 -9 -4 -15 0 -15 10 0 9 -4 16 -9 16 -4 0 -5 -18
-1 -41 4 -22 4 -56 0 -74 -5 -21 -3 -38 3 -44 8 -8 6 -11 -5 -11 -29 0 -47 11
-41 26 3 8 0 21 -7 29 -7 8 -10 22 -6 30 3 9 2 13 -4 10 -6 -3 -10 -2 -10 4 0
6 -8 7 -17 4 -16 -6 -17 -5 -3 12 14 17 13 18 -2 12 -10 -3 -18 -2 -18 2 0 5
7 12 16 15 11 4 15 14 12 31 -3 14 -2 25 1 25 12 -1 51 -38 51 -49 0 -6 5 -11
11 -11 6 0 9 6 6 13 -3 8 -1 20 3 27 6 9 2 20 -8 29 -35 32 -48 91 -23 99 9 3
11 0 5 -9 -7 -12 -5 -12 9 0 14 11 20 11 35 0 10 -8 8 -4 -4 10 -14 15 -35 24
-60 25 -22 2 -40 9 -42 17 -3 8 -9 16 -13 19 -11 8 7 81 23 91 10 7 9 9 -3 9
-11 0 -15 8 -14 28 3 49 5 52 26 52 11 0 17 5 14 10 -3 6 1 10 10 10 9 0 13
-5 10 -10 -10 -16 4 -48 23 -52 17 -4 52 10 63 25 7 9 49 -13 49 -25 0 -5 -12
-8 -27 -8 -22 0 -25 -2 -13 -10 8 -5 27 -10 43 -10 34 0 36 -23 3 -38 -20 -9
-33 -7 -72 13 -35 18 -52 21 -66 14 -26 -14 -22 -20 8 -13 14 4 29 3 33 -2 3
-5 19 -15 34 -22 15 -6 30 -20 34 -29 9 -25 25 -34 40 -21 7 6 13 7 13 4 0
-16 85 90 110 136 13 25 62 65 82 67 4 1 7 -23 7 -51z m-183 -4 c-4 -9 -9 -15
-11 -12 -3 3 -3 13 1 22 4 9 9 15 11 12 3 -3 3 -13 -1 -22z m-440 -39 c9 -14
20 -22 25 -20 7 5 29 -25 29 -39 0 -18 -27 -2 -42 24 -9 17 -29 35 -43 40 -30
11 -32 20 -5 20 11 0 27 -11 36 -25z m826 -37 c-15 -15 -24 -6 -16 16 5 12 10
14 17 7 8 -8 8 -14 -1 -23z m-838 -11 c1 -14 -1 -24 -3 -21 -3 3 -13 -15 -23
-38 l-18 -43 6 45 c4 25 8 54 10 65 1 11 3 22 3 23 1 2 6 2 13 0 6 -2 12 -16
12 -31z m76 -83 c0 -14 -6 -24 -14 -24 -22 0 -28 17 -16 40 14 26 30 17 30
-16z m665 -33 c3 -8 1 -19 -5 -25 -7 -7 -10 -6 -10 3 0 7 -7 10 -18 7 -16 -5
-18 -2 -14 23 4 26 6 28 23 18 10 -6 21 -18 24 -26z m-705 3 c0 -8 4 -13 8
-10 16 10 31 -11 38 -51 6 -39 5 -42 -19 -48 -26 -7 -67 9 -67 25 0 5 5 21 11
37 9 25 12 26 20 11 5 -10 18 -22 28 -28 29 -15 15 25 -15 45 -22 14 -36 54
-14 40 6 -3 10 -13 10 -21z m-49 -21 c13 -16 12 -17 -3 -4 -17 13 -22 21 -14
21 2 0 10 -8 17 -17z m654 -114 c3 6 12 11 18 11 7 0 4 -7 -6 -15 -14 -10 -25
-11 -41 -4 -17 8 -35 5 -76 -11 -53 -21 -54 -21 -36 -2 26 29 85 42 113 25 14
-10 23 -11 28 -4z m-51 -71 c-5 -9 -2 -9 9 1 15 12 17 11 17 -3 0 -10 5 -14
10 -11 6 3 10 1 10 -4 0 -6 -17 -11 -38 -11 -25 0 -46 -7 -60 -21 -29 -27 -19
-41 24 -33 32 6 34 5 34 -20 0 -16 4 -25 10 -21 6 3 10 -1 10 -9 0 -8 -5 -18
-12 -22 -7 -4 -8 -3 -4 4 4 7 2 12 -3 12 -6 0 -11 -6 -11 -13 0 -16 -65 -38
-87 -30 -8 3 -27 7 -42 8 -14 1 -34 3 -44 3 -10 1 -15 7 -12 12 3 6 0 10 -9
10 -16 0 -25 19 -18 38 4 11 6 11 13 0 7 -10 9 -9 9 5 0 9 5 17 11 17 5 0 7 5
3 11 -3 6 8 26 26 44 28 29 36 32 72 27 30 -4 39 -2 34 6 -5 8 3 12 24 12 22
0 29 -4 24 -12z m146 -52 c0 -8 -4 -18 -10 -21 -5 -3 -10 3 -10 14 0 12 5 21
10 21 6 0 10 -6 10 -14z m-532 -192 c28 -13 112 -88 112 -98 0 -2 -10 -2 -22
2 -15 4 -19 2 -14 -7 5 -7 9 -22 11 -34 2 -12 7 -41 11 -64 4 -27 3 -43 -3
-43 -15 0 -125 148 -138 185 -5 16 -14 36 -19 43 -7 11 -4 12 12 3 12 -6 24
-16 27 -21 3 -6 11 -10 16 -10 5 0 1 10 -11 22 -18 19 -26 38 -17 38 2 0 18
-7 35 -16z m255 -122 c52 -18 60 -37 15 -37 -33 0 -37 -21 -7 -30 14 -5 17
-10 10 -14 -6 -4 -12 -19 -13 -34 -3 -36 -10 -34 -33 11 -11 20 -26 42 -34 48
-8 6 -11 16 -8 21 4 6 0 16 -8 23 -39 33 1 39 78 12z m-24 -332 c37 -47 78
-101 91 -120 l24 -35 -23 20 c-13 11 -29 32 -37 47 -8 16 -25 29 -43 33 -21 4
-28 11 -24 23 2 10 -11 34 -32 57 -20 22 -43 54 -52 70 l-16 30 23 -20 c12
-11 52 -58 89 -105z m-380 -15 c0 -5 -6 -1 -14 9 -8 11 -15 24 -15 30 0 5 7 1
15 -10 8 -10 14 -23 14 -29z m337 -32 c-8 -8 -12 -3 -21 27 l-7 25 17 -23 c9
-13 14 -26 11 -29z m293 -26 c51 -2 56 0 53 18 -3 16 -1 17 9 8 10 -10 9 -15
-1 -29 -12 -13 -25 -15 -80 -9 -36 3 -76 8 -90 11 -14 2 -18 1 -10 -3 40 -17
90 -55 85 -63 -3 -6 -2 -10 4 -10 5 0 16 -3 24 -6 10 -3 18 2 22 16 6 20 8 21
26 4 23 -21 25 -44 3 -44 -8 0 -46 7 -85 16 -66 15 -71 18 -114 74 -25 32 -45
60 -45 62 0 3 32 -6 71 -19 40 -13 97 -24 128 -26z m292 -84 c13 -16 12 -17
-3 -4 -17 13 -22 21 -14 21 2 0 10 -8 17 -17z m-382 -68 c0 -5 -3 -4 -6 3 -2
6 -8 10 -12 8 -4 -3 -12 10 -19 27 l-11 32 24 -30 c14 -16 25 -34 24 -40z m92
32 l57 -11 6 -64 c4 -35 14 -84 22 -109 17 -50 13 -68 -8 -29 -41 77 -80 136
-100 152 -13 11 -34 34 -48 53 -22 31 -22 34 -4 27 10 -5 44 -13 75 -19z
m-147 -30 c-5 -13 64 -67 85 -67 5 0 17 -12 26 -27 l18 -27 -39 30 c-21 16
-58 43 -82 58 -31 21 -39 32 -30 37 19 13 28 11 22 -4z m-824 -52 c-7 -9 -15
-13 -18 -10 -3 2 1 11 8 20 7 9 15 13 18 10 3 -2 -1 -11 -8 -20z m1014 -96
c36 -60 66 -118 66 -127 0 -9 -25 28 -56 83 -31 55 -65 115 -77 134 -11 19
-16 32 -10 28 6 -4 41 -57 77 -118z m-977 56 c0 -8 -4 -15 -9 -15 -5 0 -13
-10 -19 -22 -9 -22 -9 -22 -4 2 2 14 5 31 5 38 0 6 6 12 13 12 8 0 14 -7 14
-15z m281 -89 l-1 -31 -4 33 c-2 17 -8 32 -14 32 -5 0 -9 5 -9 11 0 8 5 8 15
-1 8 -7 14 -26 13 -44z m906 39 c4 -13 2 -14 -14 -5 -23 13 -26 20 -6 20 8 0
16 -7 20 -15z m125 -85 c40 -67 63 -94 41 -47 -7 14 -1 10 19 -12 34 -39 66
-100 63 -118 -2 -7 1 -13 5 -13 4 0 8 -13 8 -30 0 -41 -8 -38 -28 13 l-16 42
4 -40 c4 -30 3 -35 -4 -20 -8 17 -10 17 -10 3 -1 -9 5 -21 13 -25 19 -11 46
-95 46 -142 0 -21 7 -60 15 -87 8 -27 15 -69 15 -95 0 -25 5 -50 12 -57 9 -9
9 -12 1 -12 -7 0 -13 -10 -16 -22 -3 -20 -6 -19 -20 14 -9 21 -17 49 -17 63 0
14 -5 25 -11 25 -6 0 -4 6 4 14 15 15 12 72 -4 82 -5 3 -9 16 -9 30 0 14 -6
27 -14 30 -19 7 -30 50 -27 103 2 33 0 42 -10 36 -9 -6 -11 -3 -6 8 4 11 1 17
-8 17 -8 0 -15 8 -15 18 0 14 2 15 10 2 9 -13 10 -13 10 1 0 8 -9 25 -20 37
-23 24 -26 37 -7 26 6 -4 1 5 -12 19 -14 15 -19 27 -13 27 7 0 12 5 12 11 0 5
-4 7 -10 4 -6 -3 -7 1 -4 10 4 8 1 22 -6 30 -6 8 -9 18 -7 23 3 4 -3 27 -14
51 -10 24 -19 45 -19 47 0 13 12 -4 49 -66z m-1102 43 c3 -10 14 -29 23 -43
17 -25 32 -60 26 -60 -1 0 -18 22 -37 50 -19 27 -38 50 -42 50 -5 0 -5 5 -2
10 10 15 25 12 32 -7z m809 -115 c31 -60 30 -69 -1 -32 -14 16 -25 37 -25 47
0 10 -7 30 -16 45 -15 26 -15 26 1 7 9 -11 27 -41 41 -67z m-338 7 c-3 -3 -9
2 -12 12 -6 14 -5 15 5 6 7 -7 10 -15 7 -18z m726 9 c3 -8 2 -12 -4 -9 -6 3
-10 10 -10 16 0 14 7 11 14 -7z m-574 -67 c0 -5 -4 -5 -10 -2 -5 3 -10 14 -10
23 0 15 2 15 10 2 5 -8 10 -19 10 -23z m-100 3 c0 -5 -2 -10 -4 -10 -3 0 -8 5
-11 10 -3 6 -1 10 4 10 6 0 11 -4 11 -10z m118 -47 c5 -16 13 -37 17 -48 8
-24 -28 32 -38 58 -3 9 -2 17 2 17 5 0 14 -12 19 -27z m-489 -77 c1 -27 -9
-14 -15 19 -7 37 -7 39 -4 50 3 12 17 -41 19 -69z m385 42 c-3 -5 -12 -4 -20
3 -19 16 -18 18 6 12 11 -3 17 -9 14 -15z m766 -45 c0 -22 -8 -14 -19 20 -10
29 -9 30 4 13 8 -11 15 -26 15 -33z m-651 -52 c6 -10 7 -21 4 -25 -4 -3 8 -26
26 -51 18 -25 29 -50 25 -57 -4 -6 -3 -8 3 -5 6 4 14 0 17 -9 5 -12 1 -14 -15
-9 -15 5 -19 4 -15 -4 4 -6 14 -11 23 -11 13 0 13 -3 3 -15 -14 -17 -45 -21
-35 -5 3 6 -1 10 -9 10 -9 0 -16 5 -16 10 0 6 4 10 9 10 5 0 12 7 15 17 9 22
-32 63 -89 92 -61 30 -62 54 -1 31 30 -11 44 3 26 25 -10 12 -9 15 3 15 9 0
21 -8 26 -19z m615 -56 c5 -19 4 -26 -2 -20 -5 6 -13 24 -16 40 -5 19 -4 26 2
20 5 -5 13 -23 16 -40z m-149 25 c-3 -5 -14 -10 -23 -10 -15 0 -15 2 -2 10 20
13 33 13 25 0z m-2137 -27 c-15 -15 -31 -24 -34 -20 -10 10 26 47 45 47 11 0
8 -7 -11 -27z m1560 11 c12 -8 22 -19 22 -25 0 -11 -49 -1 -67 14 -35 27 7 38
45 11z m272 -74 c0 -23 -25 -27 -33 -6 -7 16 1 26 20 26 7 0 13 -9 13 -20z
m-664 -67 c0 -12 -5 -24 -11 -27 -14 -5 -29 60 -18 77 7 12 27 -21 29 -50z
m113 10 c1 -7 -3 -13 -8 -13 -13 0 -21 27 -14 47 6 15 7 15 14 -3 4 -10 8 -25
8 -31z m326 37 c3 -5 1 -10 -4 -10 -6 0 -11 5 -11 10 0 6 2 10 4 10 3 0 8 -4
11 -10z m469 -57 c4 -13 3 -23 -2 -23 -11 0 -42 77 -34 85 6 6 25 -26 36 -62z
m469 -173 c9 -13 17 -31 16 -40 0 -10 -4 -7 -11 8 -6 12 -16 22 -23 22 -7 0
-24 45 -39 103 -40 155 -40 162 1 42 21 -60 46 -121 56 -135z m-136 193 c-3
-10 -5 -4 -5 12 0 17 2 24 5 18 2 -7 2 -21 0 -30z m-40 -143 c15 -50 34 -92
47 -103 11 -10 14 -16 6 -13 -8 3 -23 9 -33 12 -10 4 -16 13 -13 20 8 21 -12
58 -37 70 -13 6 -20 16 -17 24 3 8 5 47 4 85 -1 64 0 67 8 30 6 -22 21 -78 35
-125z m-452 133 c35 -17 48 -43 21 -43 -8 0 -17 -7 -20 -16 -5 -13 -9 -14 -21
-4 -13 10 -13 14 0 27 21 20 19 33 -5 33 -11 0 -20 5 -20 10 0 13 3 13 45 -7z
m-158 -75 c-3 -8 -6 -5 -6 6 -1 11 2 17 5 13 3 -3 4 -12 1 -19z m-477 8 c0 -9
-30 -14 -35 -6 -4 6 3 10 14 10 12 0 21 -2 21 -4z m-153 -78 c-3 -8 -6 -5 -6
6 -1 11 2 17 5 13 3 -3 4 -12 1 -19z m651 -14 c-3 -14 -5 -12 -10 9 -3 19 -2
25 4 19 6 -6 8 -18 6 -28z m-438 6 c0 -5 -2 -10 -4 -10 -3 0 -8 5 -11 10 -3 6
-1 10 4 10 6 0 11 -4 11 -10z m-253 -22 c-3 -8 -6 -5 -6 6 -1 11 2 17 5 13 3
-3 4 -12 1 -19z m253 -2 c0 -3 -4 -8 -10 -11 -5 -3 -10 -1 -10 4 0 6 5 11 10
11 6 0 10 -2 10 -4z m460 -46 c0 -10 7 -21 15 -24 9 -3 15 -11 14 -18 -4 -33
2 -50 15 -45 15 6 22 -7 31 -51 3 -18 0 -19 -29 -10 -28 9 -32 14 -28 39 2 16
0 29 -6 29 -6 0 -13 14 -17 30 -4 19 -11 28 -18 23 -8 -4 -8 -1 1 9 7 8 9 24
5 33 -4 13 -3 16 5 11 7 -4 12 -15 12 -26z m-784 -17 c-10 -10 -19 5 -10 18 6
11 8 11 12 0 2 -7 1 -15 -2 -18z m48 12 c-4 -8 -8 -15 -10 -15 -2 0 -4 7 -4
15 0 8 4 15 10 15 5 0 7 -7 4 -15z m224 -6 c-7 -5 -19 -9 -26 -9 -10 0 -10 3
0 14 7 7 19 11 26 8 11 -4 11 -6 0 -13z m67 11 c-3 -5 -10 -10 -16 -10 -5 0
-9 5 -9 10 0 6 7 10 16 10 8 0 12 -4 9 -10z m974 -123 c14 -99 13 -112 -5 -62
-17 46 -31 179 -16 155 5 -8 15 -50 21 -93z m-1063 57 c-3 -8 -1 -14 4 -14 5
0 7 -7 3 -15 -8 -21 -13 -14 -18 24 -2 19 0 29 6 25 6 -3 8 -12 5 -20z m1329
-4 c9 -16 13 -30 11 -30 -3 0 -12 14 -21 30 -9 17 -13 30 -11 30 3 0 12 -13
21 -30z m-2660 -5 c16 -13 26 -27 22 -31 -4 -4 -15 0 -25 9 -10 10 -24 17 -30
17 -7 0 -12 7 -12 15 0 21 10 18 45 -10z m1075 22 c0 -2 -9 -14 -20 -27 -11
-13 -20 -18 -20 -12 0 6 7 18 16 26 15 15 24 20 24 13z m-980 -69 c0 -5 -9 -4
-20 2 -11 6 -20 12 -20 14 0 2 9 2 20 -1 11 -3 20 -9 20 -15z m1780 12 c0 -5
-5 -10 -11 -10 -5 0 -7 5 -4 10 3 6 8 10 11 10 2 0 4 -4 4 -10z m-830 -7 c-1
-11 -26 -43 -33 -43 -4 0 -1 11 5 25 10 23 28 35 28 18z m1659 -48 c0 -5 -6 1
-14 15 -8 14 -14 30 -14 35 0 6 6 -1 14 -15 8 -14 14 -29 14 -35z m-2634 27
c-3 -3 -11 0 -18 7 -9 10 -8 11 6 5 10 -3 15 -9 12 -12z m2417 -11 c2 -17 1
-28 -4 -25 -8 5 -12 54 -4 54 2 0 6 -13 8 -29z m-2239 2 c-7 -2 -19 -2 -25 0
-7 3 -2 5 12 5 14 0 19 -2 13 -5z m1857 -13 c0 -5 -2 -10 -4 -10 -3 0 -8 5
-11 10 -3 6 -1 10 4 10 6 0 11 -4 11 -10z m-1819 -37 c13 -16 12 -17 -3 -4
-10 7 -18 15 -18 17 0 8 8 3 21 -13z m235 -60 c3 -42 1 -49 -16 -49 -12 0 -16
4 -10 11 5 6 5 17 0 24 -8 14 8 77 17 67 3 -3 7 -27 9 -53z m1654 -23 c46 -69
52 -80 47 -80 -13 0 -86 109 -91 135 -3 17 -3 23 0 15 4 -8 24 -40 44 -70z
m-1180 56 c0 -8 -7 -16 -15 -20 -13 -4 -14 -2 -5 14 13 23 20 26 20 6z m1070
-10 c0 -9 -7 -12 -20 -9 -11 3 -17 9 -14 14 8 14 34 10 34 -5z m397 -43 c-3
-10 -5 -4 -5 12 0 17 2 24 5 18 2 -7 2 -21 0 -30z m-517 7 c0 -5 -4 -10 -10
-10 -5 0 -10 5 -10 10 0 6 5 10 10 10 6 0 10 -4 10 -10z m-2200 -25 c0 7 3 7
8 0 4 -5 46 -23 94 -39 86 -28 132 -31 206 -12 50 13 64 15 78 9 10 -4 12 -9
4 -18 -29 -35 111 -23 245 20 43 14 83 24 89 21 6 -2 4 -5 -5 -5 -10 -1 -48
-14 -85 -30 -102 -43 -222 -64 -326 -58 -49 2 -94 9 -101 15 -7 6 -40 11 -73
10 -63 -2 -104 7 -104 23 0 6 -8 8 -18 5 -21 -7 -42 22 -37 50 2 11 4 21 4 24
1 3 6 -2 11 -10 5 -8 10 -10 10 -5z m2211 -50 c5 4 9 -1 9 -9 0 -9 -5 -16 -11
-16 -7 0 -9 -15 -5 -42 l6 -43 -15 30 -15 30 6 -40 c3 -22 8 -52 11 -67 3 -16
1 -28 -4 -28 -5 0 -14 35 -20 78 -7 42 -14 84 -18 93 -4 10 2 19 17 26 18 8
24 7 26 -3 2 -8 8 -12 13 -9z m-546 5 c8 -13 -4 -54 -13 -45 -10 9 -10 55 -1
55 5 0 11 -5 14 -10z m670 -10 c3 -5 -1 -10 -10 -10 -9 0 -13 5 -10 10 3 6 8
10 10 10 2 0 7 -4 10 -10z m-1122 -30 c-3 -11 -10 -23 -16 -27 -5 -3 -8 -2 -5
3 3 5 8 17 11 27 9 24 16 22 10 -3z m-371 -25 c3 -13 1 -22 -3 -19 -9 5 -13
44 -5 44 2 0 6 -11 8 -25z m2084 -23 c17 -27 17 -27 -15 2 -35 33 -37 38 -17
30 8 -3 22 -18 32 -32z m-1311 -18 c-8 -26 -19 -52 -26 -58 -13 -12 -7 15 17
72 19 48 25 39 9 -14z m-992 4 c-28 -47 -93 -91 -109 -75 -9 9 36 48 47 41 7
-4 9 -3 6 3 -4 6 8 18 26 27 39 19 40 19 30 4z m2422 -91 c17 -9 28 -16 25
-16 -9 0 -110 36 -116 42 -11 10 61 -10 91 -26z m-2326 -32 c-23 -23 -71 -28
-94 -11 -19 15 -18 15 21 14 22 -1 49 4 60 10 24 13 32 6 13 -13z m1491 -5
c12 -23 12 -24 -3 -11 -10 7 -17 20 -17 29 0 18 3 16 20 -18z m57 -12 c-3 -8
-6 -5 -6 6 -1 11 2 17 5 13 3 -3 4 -12 1 -19z m-1357 -19 c0 -6 -4 -7 -10 -4
-5 3 -10 11 -10 16 0 6 5 7 10 4 6 -3 10 -11 10 -16z m-813 -4 c8 -23 0 -25
-21 -4 -18 17 -18 19 -2 19 9 0 19 -7 23 -15z m98 -109 c24 -28 124 -66 174
-66 49 0 27 -18 -25 -21 -29 -2 -47 3 -59 15 -10 9 -29 16 -44 15 -14 -1 -41
2 -60 6 -27 6 -30 10 -17 17 22 12 22 50 -1 41 -11 -4 -14 -3 -9 5 10 17 18
15 41 -12z m1713 -13 c-16 -2 -28 -8 -28 -13 0 -13 26 -19 69 -14 34 4 40 2
35 -11 -3 -8 -10 -16 -15 -16 -55 -8 -99 -31 -99 -51 0 -12 -3 -18 -6 -15 -11
11 -64 -26 -64 -44 0 -29 39 -34 66 -8 17 16 27 20 35 12 13 -13 2 -56 -13
-47 -6 4 -8 -1 -3 -15 4 -12 2 -21 -4 -21 -6 0 -11 5 -11 10 0 16 -25 11 -50
-10 l-23 -20 24 -1 c22 0 22 -1 4 -8 -11 -5 -26 -6 -34 -3 -9 3 -12 1 -8 -5 4
-6 3 -13 -1 -15 -13 -5 -24 -58 -12 -58 5 0 10 -15 10 -32 0 -26 3 -30 11 -18
9 13 10 13 6 0 -6 -24 -40 -18 -47 9 -5 20 -8 16 -19 -27 -10 -33 -20 -52 -33
-55 -24 -7 -88 11 -88 24 0 6 -4 8 -9 5 -5 -4 -12 7 -16 24 -4 16 -11 30 -16
30 -5 0 -9 7 -9 15 0 8 -4 15 -10 15 -5 0 -10 -26 -11 -57 0 -32 -4 -67 -9
-78 -7 -19 -8 -18 -14 5 -27 115 -33 276 -10 308 18 26 8 29 -24 6 -12 -8 -22
-12 -22 -8 0 4 -2 5 -5 2 -3 -3 -1 -17 6 -31 13 -29 4 -97 -12 -97 -10 0 -43
32 -99 97 -18 21 -18 23 -2 32 9 4 23 6 29 4 7 -3 17 7 23 21 11 30 37 34 55
9 12 -16 16 -16 40 -3 24 13 25 15 8 21 -10 4 -12 8 -5 8 8 1 11 8 7 20 -4 14
1 20 22 24 15 3 30 2 33 -3 7 -10 112 4 172 23 30 9 50 11 56 5 11 -11 54 21
46 34 -3 4 0 8 5 8 6 0 11 -6 11 -14 0 -7 6 -19 14 -25 21 -18 32 6 12 28 -20
22 -11 31 28 30 30 -2 30 -2 4 -6z m-1301 -59 c-3 -3 -12 -4 -19 -1 -8 3 -5 6
6 6 11 1 17 -2 13 -5z m678 -104 c27 -30 12 -34 -15 -5 -13 14 -19 25 -13 25
5 0 18 -9 28 -20z m1403 -71 c26 -28 30 -38 20 -46 -10 -8 -24 -1 -58 29 -25
22 -40 38 -34 34 7 -3 17 1 24 9 7 9 13 14 14 13 1 -2 16 -19 34 -39z m-453
-10 c46 -25 101 -69 86 -69 -5 0 -13 5 -16 10 -6 10 -78 50 -90 50 -3 0 -3 -4
0 -10 3 -5 0 -7 -8 -4 -15 5 -31 44 -18 44 3 0 24 -10 46 -21z m84 7 c17 -10
20 -14 9 -18 -8 -3 -25 3 -39 13 -28 22 -7 26 30 5z m297 -18 c4 -7 4 -10 0
-6 -5 4 -19 3 -32 -2 -24 -10 -35 4 -11 13 21 9 36 7 43 -5z m151 -103 c-11
-10 -17 -11 -26 -2 -16 16 -14 47 4 47 18 0 18 5 5 30 -8 15 -6 21 7 29 16 9
18 4 21 -40 2 -33 -2 -54 -11 -64z m153 75 c-13 -8 -13 -10 1 -10 9 0 22 -7
29 -15 9 -10 9 -15 1 -15 -6 0 -11 5 -11 10 0 6 -14 10 -31 10 -16 0 -28 -4
-25 -9 5 -7 -34 -31 -50 -31 -3 0 8 16 23 35 19 23 36 35 53 35 20 0 22 -2 10
-10z m-313 -7 c-4 -3 -17 -7 -30 -9 -12 -1 -22 -3 -22 -4 0 -2 -9 -4 -20 -5
-11 -2 -33 -6 -50 -10 -22 -5 -27 -4 -20 3 12 13 76 30 119 31 16 1 26 -2 23
-6z m36 -65 c-2 -4 -12 -2 -23 4 -22 14 -116 -13 -135 -39 -18 -24 -49 -10
-35 16 11 22 39 33 91 37 20 1 45 6 55 12 14 8 23 6 35 -6 9 -9 15 -20 12 -24z
m-216 17 c-22 -18 -46 -23 -55 -12 -8 9 -2 12 24 13 19 0 33 0 31 -1z m-947
-77 l-1 -53 -15 28 c-9 17 -13 39 -10 53 11 42 26 26 26 -28z m1400 21 c0 -18
-4 -28 -10 -24 -6 4 -8 11 -5 16 4 5 1 9 -4 9 -6 0 -11 7 -11 15 0 8 7 15 15
15 10 0 15 -10 15 -31z m-406 -68 c-6 -7 -54 29 -54 40 0 6 13 0 29 -13 15
-13 27 -25 25 -27z m-94 29 c0 -5 -5 -10 -11 -10 -5 0 -7 5 -4 10 3 6 8 10 11
10 2 0 4 -4 4 -10z m-582 -40 c14 -47 15 -60 3 -60 -10 0 -34 61 -26 68 3 3 0
11 -6 19 -9 10 -8 13 2 13 8 0 20 -18 27 -40z m912 -34 c0 -44 -18 -111 -28
-102 -3 3 -12 0 -20 -7 -13 -10 -14 -8 -8 18 4 17 16 39 27 51 22 23 24 41 7
46 -14 5 -4 38 12 38 5 0 10 -20 10 -44z m-1903 -163 c-3 -10 -5 -4 -5 12 0
17 2 24 5 18 2 -7 2 -21 0 -30z"/>
<path d="M2666 3713 c-12 -12 -5 -23 14 -23 11 0 20 4 20 9 0 11 -26 22 -34
14z"/>
<path d="M2591 3666 c-12 -13 -31 -47 -42 -77 l-21 -54 21 19 c23 21 77 124
69 131 -3 3 -15 -6 -27 -19z"/>
<path d="M3250 2175 c0 -5 5 -17 10 -25 5 -8 10 -10 10 -5 0 6 -5 17 -10 25
-5 8 -10 11 -10 5z"/>
<path d="M3250 1959 c0 -5 5 -7 10 -4 6 3 10 8 10 11 0 2 -4 4 -10 4 -5 0 -10
-5 -10 -11z"/>
<path d="M3321 1734 c0 -11 3 -14 6 -6 3 7 2 16 -1 19 -3 4 -6 -2 -5 -13z"/>
<path d="M720 1270 c0 -5 5 -10 11 -10 5 0 7 5 4 10 -3 6 -8 10 -11 10 -2 0
-4 -4 -4 -10z"/>
<path d="M2462 765 c-11 -13 -8 -15 18 -15 21 0 30 4 28 13 -7 18 -31 19 -46
2z"/>
<path d="M2408 583 c7 -3 16 -2 19 1 4 3 -2 6 -13 5 -11 0 -14 -3 -6 -6z"/>
<path d="M2407 543 c3 -7 -2 -13 -11 -13 -17 0 -30 -36 -24 -67 4 -20 49 -26
55 -6 3 7 -3 10 -15 6 -11 -2 -23 1 -27 7 -10 17 16 31 32 18 10 -8 13 -2 13
29 0 27 -4 40 -14 40 -8 0 -12 -6 -9 -14z"/>
<path d="M2321 534 c0 -11 3 -14 6 -6 3 7 2 16 -1 19 -3 4 -6 -2 -5 -13z"/>
<path d="M2326 485 c8 -37 14 -45 14 -19 0 10 -5 26 -10 34 -8 11 -9 7 -4 -15z"/>
<path d="M2769 3042 c-3 -20 -2 -29 4 -23 5 5 7 19 5 32 -3 20 -5 19 -9 -9z"/>
<path d="M1825 2948 c-11 -6 -36 -29 -55 -51 l-35 -40 30 16 c17 8 37 27 44
41 20 37 45 41 91 15 35 -20 110 -113 110 -137 0 -4 7 -17 15 -28 14 -17 14
-15 1 19 -26 65 -85 144 -120 161 -39 18 -53 19 -81 4z"/>
<path d="M1539 2817 c0 -1 -2 -10 -4 -21 -3 -15 1 -17 27 -12 17 3 40 6 52 6
17 1 18 2 6 9 -13 8 -79 22 -81 18z"/>
<path d="M1644 2791 c7 -11 46 -35 46 -28 0 3 -12 12 -26 22 -15 9 -23 12 -20
6z"/>
<path d="M2046 2727 c3 -10 9 -15 12 -12 3 3 0 11 -7 18 -10 9 -11 8 -5 -6z"/>
<path d="M1482 2556 c-18 -17 -21 -29 -16 -54 6 -28 4 -32 -15 -32 -11 0 -21
-4 -21 -9 0 -5 -7 -17 -16 -25 -10 -11 -11 -16 -3 -16 12 0 3 -15 -9 -15 -36
-3 -96 -41 -87 -55 3 -4 -3 -14 -12 -21 -15 -12 -16 -12 -10 4 5 14 3 18 -10
15 -9 -2 -16 -7 -14 -11 3 -12 -23 -34 -45 -39 -12 -2 -20 -13 -22 -31 -4 -36
19 -36 48 1 l21 27 -5 -32 c-4 -26 -2 -31 10 -26 8 3 13 8 10 10 -3 3 2 12 10
21 14 14 19 14 44 -1 24 -15 29 -15 34 -2 3 8 17 20 31 27 14 6 25 15 25 21 0
17 44 46 52 34 14 -22 21 3 8 28 -12 22 -14 23 -25 8 -11 -15 -12 -14 -10 8 1
13 3 32 4 42 1 11 9 17 24 17 12 0 17 3 11 8 -14 9 -16 72 -3 72 5 0 9 -9 9
-20 0 -25 16 -26 29 -3 7 13 5 23 -6 35 -10 11 -12 18 -5 18 7 0 12 5 12 10 0
17 -24 10 -48 -14z m-42 -170 c0 -11 -19 -15 -25 -6 -3 5 1 10 9 10 9 0 16 -2
16 -4z"/>
<path d="M1327 2233 c-12 -12 -7 -22 8 -17 8 4 15 10 15 15 0 11 -14 12 -23 2z"/>
<path d="M1168 1783 c7 -3 16 -2 19 1 4 3 -2 6 -13 5 -11 0 -14 -3 -6 -6z"/>
<path d="M745 1760 c-3 -5 -1 -10 4 -10 6 0 11 5 11 10 0 6 -2 10 -4 10 -3 0
-8 -4 -11 -10z"/>
<path d="M750 1710 c-12 -8 -11 -10 8 -10 12 0 22 5 22 10 0 13 -11 13 -30 0z"/>
<path d="M871 1706 c-10 -12 -8 -13 8 -9 12 3 21 9 21 14 0 14 -16 11 -29 -5z"/>
<path d="M720 1659 c0 -5 5 -7 10 -4 6 3 10 8 10 11 0 2 -4 4 -10 4 -5 0 -10
-5 -10 -11z"/>
<path d="M667 1641 c-4 -17 -3 -21 5 -13 5 5 8 16 6 23 -3 8 -7 3 -11 -10z"/>
<path d="M916 1628 c-3 -13 -6 -27 -6 -33 1 -15 30 27 30 42 0 22 -17 15 -24
-9z"/>
<path d="M661 1605 c-25 -14 -48 -45 -33 -45 4 0 7 -15 6 -32 -2 -31 -2 -32
12 -13 8 11 13 29 12 40 -2 11 8 30 21 43 26 24 19 27 -18 7z"/>
<path d="M670 1558 c0 -19 2 -20 10 -8 13 19 13 30 0 30 -5 0 -10 -10 -10 -22z"/>
<path d="M587 1518 c-10 -17 -15 -33 -12 -37 9 -9 40 14 43 34 7 32 -13 34
-31 3z"/>
<path d="M647 1463 c7 -17 15 -16 39 2 18 13 17 14 -12 12 -21 -1 -30 -6 -27
-14z"/>
</g>
</svg>
